<?xml version="1.0" encoding="iso-8859-1"?>
<!-- Generator: Adobe Illustrator 19.0.0, SVG Export Plug-In . SVG Version: 6.00 Build 0)  -->
<svg version="1.1" id="Layer_1" xmlns="http://www.w3.org/2000/svg" xmlns:xlink="http://www.w3.org/1999/xlink" x="0px" y="0px"
	 viewBox="0 0 512 512" style="enable-background:new 0 0 512 512;" xml:space="preserve">
<path style="fill:#A8A5A4;" d="M285.849,324.289c0.068,45.204,32.346,83.933,76.791,92.149c5.623,1.118,11.331,1.689,17.065,1.706
	c11.672-0.009,23.242-2.176,34.129-6.399v74.658c0,9.428-7.636,17.065-17.065,17.065H55.476c-9.428,0-17.065-7.636-17.065-17.065
	V25.657c0-9.428,7.636-17.065,17.065-17.065h247.438V110.98c0,9.428,7.636,17.065,17.065,17.065h93.856v108.702
	c-10.887-4.198-22.457-6.34-34.129-6.314c-5.725-0.009-11.442,0.529-17.065,1.621C318.161,240.271,285.875,279.05,285.849,324.289z"
	/>
<path style="fill:#BDBDBD;" d="M251.72,324.289c0,51.834,42.022,93.856,93.856,93.856c5.725,0.043,11.442-0.503,17.065-1.621
	c5.623,1.092,11.339,1.63,17.065,1.621v68.259c0,9.428-7.636,17.065-17.065,17.065H55.476c-9.428,0-17.065-7.636-17.065-17.065
	V25.657c0-9.428,7.636-17.065,17.065-17.065h213.308V110.98c0,9.428,7.636,17.065,17.065,17.065h93.856v102.388
	c-5.725-0.009-11.442,0.529-17.065,1.621c-5.623-1.118-11.339-1.664-17.065-1.621C293.733,230.433,251.72,272.446,251.72,324.289z"
	/>
<path style="fill:#A8A5A4;" d="M413.834,128.045h-93.856c-9.428,0-17.065-7.636-17.065-17.065V8.592L413.834,128.045z"/>
<path d="M396.769,512H55.476c-14.138,0-25.597-11.459-25.597-25.597V25.657c0-14.138,11.459-25.597,25.597-25.597h247.438
	c4.71,0,8.532,3.822,8.532,8.532V110.98c0,4.71,3.823,8.532,8.532,8.532h93.856c4.71,0,8.532,3.822,8.532,8.532v108.702
	c-0.017,4.71-3.848,8.524-8.558,8.507c-1.041,0-2.073-0.196-3.046-0.572c-43.899-17.141-93.378,4.548-110.511,48.447
	c-17.133,43.899,4.548,93.378,48.447,110.511c19.957,7.79,42.116,7.79,62.073,0c4.394-1.698,9.334,0.495,11.032,4.889
	c0.375,0.973,0.572,2.005,0.572,3.046v74.829C422.366,500.533,410.899,512,396.769,512z M55.476,17.125
	c-4.71,0-8.532,3.822-8.532,8.532v460.746c0,4.71,3.822,8.532,8.532,8.532h341.294c4.71,0,8.532-3.822,8.532-8.532v-63.054
	c-54.761,14.121-110.588-18.831-124.709-73.583c-14.121-54.761,18.831-110.588,73.583-124.709c16.766-4.326,34.36-4.326,51.126,0
	v-88.48h-85.323c-14.138,0-25.597-11.459-25.597-25.597V17.125H55.476z"/>
<path d="M413.834,136.577h-93.856c-14.138,0-25.597-11.459-25.597-25.597V8.592c-0.034-4.718,3.763-8.558,8.473-8.592
	c2.38-0.017,4.659,0.964,6.288,2.705l110.92,119.453c3.251,3.413,3.123,8.814-0.29,12.065
	C418.168,135.741,416.044,136.586,413.834,136.577z M311.446,30.264v80.716c0,4.71,3.823,8.532,8.532,8.532h74.317L311.446,30.264z"
	/>
<path d="M226.123,93.916H72.54c-4.71,0-8.532-3.822-8.532-8.532c0-4.71,3.822-8.532,8.532-8.532h153.582
	c4.71,0,8.532,3.822,8.532,8.532C234.655,90.093,230.832,93.916,226.123,93.916z"/>
<path d="M226.123,128.045H72.54c-4.71,0-8.532-3.822-8.532-8.532c0-4.71,3.822-8.532,8.532-8.532h153.582
	c4.71,0,8.532,3.822,8.532,8.532C234.655,124.223,230.832,128.045,226.123,128.045z"/>
<path d="M226.123,162.174H72.54c-4.71,0-8.532-3.822-8.532-8.532s3.822-8.532,8.532-8.532h153.582c4.71,0,8.532,3.822,8.532,8.532
	S230.832,162.174,226.123,162.174z"/>
<path d="M226.123,196.304H72.54c-4.71,0-8.532-3.822-8.532-8.532c0-4.71,3.822-8.532,8.532-8.532h153.582
	c4.71,0,8.532,3.822,8.532,8.532C234.655,192.481,230.832,196.304,226.123,196.304z"/>
<path style="fill:#388E3C;" d="M473.56,324.289c0,51.834-42.022,93.856-93.856,93.856c-4.224,0.017-8.447-0.273-12.628-0.853
	c-51.365-6.971-87.346-54.266-80.375-105.63c5.674-41.817,38.558-74.701,80.375-80.375c4.181-0.58,8.404-0.87,12.628-0.853
	C431.539,230.433,473.56,272.446,473.56,324.289z"/>
<path style="fill:#4CAF50;" d="M447.963,324.289c0.009,38.677-23.703,73.395-59.726,87.456c-6.834,2.594-13.933,4.454-21.16,5.546
	c-51.365-6.971-87.346-54.266-80.375-105.63c5.674-41.817,38.558-74.701,80.375-80.375c7.227,1.092,14.326,2.952,21.16,5.546
	C424.26,250.894,447.972,285.612,447.963,324.289z"/>
<path d="M379.705,426.677c-56.544,0-102.388-45.844-102.388-102.388s45.844-102.388,102.388-102.388
	c12.73,0,25.341,2.372,37.201,6.997l0,0c52.687,20.546,78.736,79.905,58.191,132.593c-10.401,26.681-31.51,47.79-58.191,58.191
	C405.037,424.288,392.426,426.66,379.705,426.677z M379.705,238.965c-47.124,0.068-85.264,38.336-85.195,85.451
	c0.068,47.124,38.336,85.264,85.451,85.195c47.124-0.068,85.264-38.336,85.195-85.451c-0.051-35.136-21.647-66.655-54.394-79.393
	C400.856,240.911,390.327,238.948,379.705,238.965z"/>
<polygon style="fill:#F4F4F4;" points="430.899,307.139 430.899,341.268 396.769,341.268 396.769,375.398 362.64,375.398 
	362.64,341.268 328.511,341.268 328.511,307.139 362.64,307.139 362.64,273.009 396.769,273.009 396.769,307.139 "/>
<polygon style="fill:#FFFFFF;" points="413.834,307.139 413.834,341.268 379.705,341.268 379.705,375.398 362.64,375.398 
	362.64,341.268 328.511,341.268 328.511,307.139 362.64,307.139 362.64,273.009 379.705,273.009 379.705,307.139 "/>
<path d="M396.769,384.015H362.64c-4.71,0-8.532-3.823-8.532-8.532v-25.597h-25.597c-4.71,0-8.532-3.823-8.532-8.532v-34.129
	c0-4.71,3.823-8.532,8.532-8.532h25.597v-25.597c0-4.71,3.823-8.532,8.532-8.532h34.129c4.71,0,8.532,3.822,8.532,8.532v25.597
	h25.597c4.71,0,8.532,3.823,8.532,8.532v34.129c0,4.71-3.823,8.532-8.532,8.532h-25.597v25.597
	C405.302,380.193,401.479,384.015,396.769,384.015z M371.172,366.95h17.065v-25.597c0-4.71,3.823-8.532,8.532-8.532h25.597v-17.065
	h-25.597c-4.71,0-8.532-3.823-8.532-8.532v-25.597h-17.065v25.597c0,4.71-3.823,8.532-8.532,8.532h-25.597v17.065h25.597
	c4.71,0,8.532,3.823,8.532,8.532V366.95z"/>
<g>
</g>
<g>
</g>
<g>
</g>
<g>
</g>
<g>
</g>
<g>
</g>
<g>
</g>
<g>
</g>
<g>
</g>
<g>
</g>
<g>
</g>
<g>
</g>
<g>
</g>
<g>
</g>
<g>
</g>
</svg>
