<svg height="488pt" viewBox="0 0 487 488" width="488pt" xmlns="http://www.w3.org/2000/svg"><path d="m452.332031 460h-306c-17.675781 0-32-14.324219-32-32v-392c0-17.675781 14.324219-32 32-32h306c17.671875 0 32 14.324219 32 32v392c0 17.675781-14.328125 32-32 32zm0 0" fill="#e0ebfc"/><path d="m431.628906 268.023438c0 73.066406-59.230468 132.300781-132.296875 132.300781-73.070312 0-132.300781-59.234375-132.300781-132.300781 0-73.066407 59.230469-132.300782 132.300781-132.300782 73.066407 0 132.296875 59.234375 132.296875 132.300782zm0 0" fill="#6bdddd"/><path d="m299.332031 370.324219c-56.410156 0-102.300781-45.890625-102.300781-102.296875 0-56.410156 45.890625-102.300782 102.300781-102.300782 56.40625 0 102.296875 45.890626 102.296875 102.300782 0 56.40625-45.890625 102.296875-102.296875 102.296875zm0 0" fill="#a4c9ff"/><path d="m382.257812 292.9375c-9.734374 0-18.585937-3.714844-25.300781-9.792969-1.550781-1.402343-3.851562-1.402343-5.398437 0-6.714844 6.078125-15.570313 9.792969-25.300782 9.792969-8.882812 0-17.035156-3.097656-23.5-8.257812-1.472656-1.175782-3.527343-1.175782-4.996093 0-6.46875 5.160156-14.621094 8.257812-23.503907 8.257812-9.730468 0-18.582031-3.714844-25.300781-9.792969-1.546875-1.402343-3.847656-1.402343-5.398437 0-6.714844 6.078125-15.570313 9.792969-25.296875 9.792969-4.171875 0-8.179688-.691406-11.929688-1.953125-3.078125-1.035156-6.039062 1.816406-5.128906 4.964844 12.40625 42.925781 51.742187 74.375 98.226563 74.375 46.257812 0 85.429687-31.152344 98.027343-73.765625.90625-3.054688-1.855469-5.941406-4.894531-5.070313-3.277344.941407-6.730469 1.449219-10.304688 1.449219zm0 0" fill="#4671c6"/><path d="m114.332031 36v58h370v-58c0-17.671875-14.328125-32-32-32h-306c-17.675781 0-32 14.328125-32 32zm0 0" fill="#a4c9ff"/><path d="m452.332031 4h-210.335937v90h242.335937v-58c0-17.671875-14.328125-32-32-32zm0 0" fill="#a4c9ff"/><path d="m455.164062 76h-96c-4.417968 0-8-3.582031-8-8v-38c0-4.417969 3.582032-8 8-8h96c4.417969 0 8 3.582031 8 8v38c0 4.417969-3.582031 8-8 8zm0 0" fill="#f9a7a7"/><path d="m207.105469 74h-53.886719c-8.773438 0-15.886719-7.113281-15.886719-15.890625v-16.859375h85.664063v16.859375c0 8.777344-7.113282 15.890625-15.890625 15.890625zm0 0" fill="#4671c6"/><path d="m216.996094 49h-73.664063c-3.316406 0-6-2.6875-6-6v-12c0-3.3125 2.683594-6 6-6h73.664063c3.3125 0 6 2.6875 6 6v12c0 3.3125-2.6875 6-6 6zm0 0" fill="#f9cfcf"/><path d="m336.234375 51.558594c0 9.84375-7.980469 17.828125-17.828125 17.828125-9.84375 0-17.824219-7.984375-17.824219-17.828125 0-9.847656 7.980469-17.828125 17.824219-17.828125 9.847656 0 17.828125 7.980469 17.828125 17.828125zm0 0" fill="#4671c6"/><path d="m318.40625 54.363281c-2.1875 0-3.960938-1.773437-3.960938-3.960937v-17.828125c0-2.1875 1.773438-3.960938 3.960938-3.960938 2.191406 0 3.964844 1.773438 3.964844 3.960938v17.828125c0 2.191406-1.773438 3.960937-3.964844 3.960937zm0 0" fill="#e0ebfc"/><path d="m290.734375 51.558594c0 9.84375-7.980469 17.828125-17.828125 17.828125-9.84375 0-17.824219-7.984375-17.824219-17.828125 0-9.847656 7.980469-17.828125 17.824219-17.828125 9.847656 0 17.828125 7.980469 17.828125 17.828125zm0 0" fill="#4671c6"/><path d="m272.90625 54.363281c-2.1875 0-3.960938-1.773437-3.960938-3.960937v-17.828125c0-2.1875 1.773438-3.960938 3.960938-3.960938 2.191406 0 3.964844 1.773438 3.964844 3.960938v17.828125c0 2.191406-1.773438 3.960937-3.964844 3.960937zm0 0" fill="#e0ebfc"/><path d="m299.332031 404.324219c-75.15625 0-136.300781-61.140625-136.300781-136.296875s61.144531-136.300782 136.300781-136.300782c75.152344 0 136.296875 61.144532 136.296875 136.300782s-61.144531 136.296875-136.296875 136.296875zm0-264.601563c-70.746093 0-128.300781 57.554688-128.300781 128.300782 0 70.746093 57.554688 128.296874 128.300781 128.296874 70.742188 0 128.296875-57.550781 128.296875-128.296874 0-70.742188-57.554687-128.300782-128.296875-128.300782zm0 0" fill="#3762cc"/><path d="m299.332031 374.324219c-58.617187 0-106.300781-47.6875-106.300781-106.296875 0-58.617188 47.683594-106.300782 106.300781-106.300782 58.613281 0 106.296875 47.683594 106.296875 106.300782 0 58.609375-47.683594 106.296875-106.296875 106.296875zm0-204.601563c-54.207031 0-98.300781 44.097656-98.300781 98.300782 0 54.203124 44.097656 98.296874 98.300781 98.296874 54.199219 0 98.296875-44.09375 98.296875-98.296874 0-54.203126-44.09375-98.300782-98.296875-98.300782zm0 0" fill="#3762cc"/><path d="m423.011719 221.042969h-45.382813c-11.046875 0-20 8.953125-20 20v53.964843c0 11.046876 8.953125 20 20 20h45.382813c5.550781-14.605468 8.617187-30.433593 8.617187-46.984374 0-16.550782-3.066406-32.378907-8.617187-46.980469zm-25.019531 73.964843h-16.363282c-2.207031 0-4-1.792968-4-4v-45.96875c0-2.207031 1.792969-4 4-4h16.363282c2.355468 8.605469 3.636718 17.648438 3.636718 26.988282s-1.28125 18.378906-3.636718 26.980468zm0 0" fill="#6bdddd"/><g fill="#3762cc"><path d="m423.015625 319.007812h-45.386719c-13.234375 0-24-10.765624-24-24v-53.964843c0-13.234375 10.765625-24 24-24h45.386719c1.660156 0 3.148437 1.023437 3.738281 2.578125 5.890625 15.5 8.875 31.785156 8.875 48.402344 0 16.621093-2.984375 32.90625-8.875 48.40625-.589844 1.550781-2.078125 2.578124-3.738281 2.578124zm-45.386719-93.964843c-8.824218 0-16 7.175781-16 16v53.964843c0 8.820313 7.175782 16 16 16h42.59375c4.917969-13.808593 7.40625-28.257812 7.40625-42.984374 0-14.722657-2.488281-29.171876-7.40625-42.980469zm20.363282 73.964843h-16.363282c-4.414062 0-8-3.585937-8-8v-45.96875c0-4.410156 3.585938-8 8-8h16.359375c1.804688 0 3.382813 1.207032 3.859375 2.945313 2.511719 9.15625 3.78125 18.589844 3.78125 28.042969 0 9.449218-1.269531 18.878906-3.777344 28.039062-.476562 1.734375-2.058593 2.941406-3.859374 2.941406zm-16.363282-53.96875v45.96875h13.261719c1.816406-7.539062 2.738281-15.253906 2.738281-22.980468 0-7.730469-.921875-15.449219-2.738281-22.988282zm0 0"/><path d="m452.332031 464h-306c-19.851562 0-36-16.148438-36-36v-392c0-19.851562 16.148438-36 36-36h306c19.847657 0 36 16.148438 36 36v392c0 19.851562-16.152343 36-36 36zm-306-456c-15.441406 0-28 12.558594-28 28v392c0 15.441406 12.558594 28 28 28h306c15.4375 0 28-12.558594 28-28v-392c0-15.441406-12.5625-28-28-28zm0 0"/><path d="m484.332031 98h-370c-2.210937 0-4-1.792969-4-4v-58c0-19.851562 16.148438-36 36-36h306c19.847657 0 36 16.148438 36 36v58c0 2.207031-1.792969 4-4 4zm-366-8h362v-54c0-15.441406-12.5625-28-28-28h-306c-15.441406 0-28 12.558594-28 28zm0 0"/></g><path d="m275.707031 218.183594c-2.996093 4.648437-4.773437 10.230468-4.855469 16.242187-.210937 15.84375 11.839844 29.386719 26.945313 30.214844 16.421875.902344 30.011719-12.78125 30.011719-29.789063 0-6.171874-1.789063-11.90625-4.855469-16.667968l-.007813-.011719-21.242187-33.523437c-1.128906-1.777344-3.617187-1.777344-4.746094 0l-21.242187 33.523437s0 .003906-.003906.003906zm0 0" fill="#e0ebfc"/><path d="m107.996094 351.335938h17.660156l-26.113281-24.316407c-3.699219-3.445312-8.570313-5.363281-13.625-5.363281h-24.664063c-4.816406 0-9.472656 1.738281-13.113281 4.898438l-22.800781 19.789062c-1.660156 1.441406-3.050782 3.132812-4.140625 4.992188zm0 0" fill="#ffea92"/><path d="m107.996094 351.335938h79.488281v-13.035157c0-7.125-3.789063-13.710937-9.949219-17.289062l-21.757812-12.644531c-3.050782-1.773438-6.519532-2.710938-10.050782-2.710938h-44.667968c-6.261719 0-12.164063 2.9375-15.941406 7.929688l-25.277344 33.382812c-1.023438 1.351562-1.859375 2.820312-2.5 4.367188zm0 0" fill="#6bdddd"/><path d="m107.996094 351.335938h76.699218l-11.265624-16.710938c-3.71875-5.515625-9.933594-8.824219-16.582032-8.824219h-8.652344c-3.332031 0-6.609374.832031-9.539062 2.421875l-42.597656 23.109375h11.9375zm0 0" fill="#f9a7a7"/><path d="m107.996094 351.335938h-97.496094c-3.503906 0-6.265625 2.984374-5.980469 6.476562l8.210938 102.160156c1.089843 13.53125 14.164062 24.027344 29.929687 24.027344h130.675782c15.765624 0 28.839843-10.496094 29.925781-24.027344l8.214843-102.160156c.28125-3.492188-2.476562-6.476562-5.980468-6.476562zm0 0" fill="#4671c6"/><path d="m173.335938 488h-130.675782c-17.773437 0-32.667968-12.171875-33.914062-27.707031l-8.214844-102.160157c-.222656-2.773437.730469-5.535156 2.617188-7.582031 1.890624-2.042969 4.566406-3.214843 7.351562-3.214843h194.996094c2.785156 0 5.460937 1.171874 7.351562 3.214843 1.886719 2.046875 2.839844 4.808594 2.617188 7.582031l-8.210938 102.160157c-1.253906 15.535156-16.152344 27.707031-33.917968 27.707031zm-162.835938-132.664062c-.765625 0-1.25.398437-1.472656.640624-.21875.238282-.582032.757813-.523438 1.515626l8.214844 102.160156c.914062 11.410156 12.3125 20.347656 25.941406 20.347656h130.675782c13.625 0 25.023437-8.9375 25.941406-20.347656l8.210937-102.160156c.058594-.757813-.300781-1.277344-.523437-1.515626-.222656-.242187-.707032-.640624-1.46875-.640624zm0 0" fill="#3762cc"/><path d="m187.484375 355.332031h-166.28125c-1.433594 0-2.761719-.769531-3.472656-2.015625-.710938-1.242187-.703125-2.773437.023437-4.011718 1.332032-2.265626 3.003906-4.277344 4.96875-5.984376l22.800782-19.789062c4.363281-3.789062 9.949218-5.878906 15.730468-5.878906h15.761719l4.910156-6.480469c4.511719-5.960937 11.664063-9.519531 19.132813-9.519531h44.667968c4.230469 0 8.398438 1.125 12.058594 3.25l21.757813 12.644531c7.363281 4.28125 11.941406 12.234375 11.941406 20.75v13.03125c0 2.214844-1.789063 4.003906-4 4.003906zm-157.179687-8h153.179687v-9.03125c0-5.679687-3.050781-10.980469-7.960937-13.832031l-21.753907-12.644531c-2.445312-1.417969-5.222656-2.167969-8.042969-2.167969h-44.667968c-4.976563 0-9.746094 2.371094-12.753906 6.34375l-6.113282 8.070312c-.753906 1-1.9375 1.585938-3.1875 1.585938h-17.75c-3.855468 0-7.578125 1.390625-10.484375 3.914062zm0 0" fill="#3762cc"/></svg>