<svg height="464pt" viewBox="-16 0 464 464" width="464pt" xmlns="http://www.w3.org/2000/svg"><path d="m16 32h304c8.835938 0 16 7.164062 16 16v360c0 8.835938-7.164062 16-16 16h-304c-8.835938 0-16-7.164062-16-16v-360c0-8.835938 7.164062-16 16-16zm0 0" fill="#787680"/><path d="m40 64h256c4.417969 0 8 3.582031 8 8v312c0 4.417969-3.582031 8-8 8h-256c-4.417969 0-8-3.582031-8-8v-312c0-4.417969 3.582031-8 8-8zm0 0" fill="#ffdaaa"/><path d="m240 64v24c0 4.417969-3.582031 8-8 8h-128c-4.417969 0-8-3.582031-8-8v-80c0-4.417969 3.582031-8 8-8h128c4.417969 0 8 3.582031 8 8zm0 0" fill="#a78966"/><path d="m144 154.640625v61.359375h-64v-64h64zm0 0" fill="#ffda44"/><path d="m112 200c-2.121094 0-4.15625-.84375-5.65625-2.34375l-16-16 11.3125-11.3125 9.886719 9.886719 42.402343-49.429688 12.144532 10.398438-48 56c-1.449219 1.691406-3.535156 2.703125-5.761719 2.792969zm0 0" fill="#d80027"/><path d="m352 360v80c0 13.253906-10.746094 24-24 24s-24-10.746094-24-24v-80zm0 0" fill="#957856"/><path d="m312 320h32v40h-32zm0 0" fill="#787680"/><path d="m320 368c4.417969 0 8 3.582031 8 8v24c0 4.417969-3.582031 8-8 8s-8-3.582031-8-8v-24c0-4.417969 3.582031-8 8-8zm0 0" fill="#a78966"/><path d="m312 328h8v32h-8zm0 0" fill="#898890"/><path d="m432 232c0 57.4375-46.5625 104-104 104s-104-46.5625-104-104 46.5625-104 104-104 104 46.5625 104 104zm0 0" fill="#5aaae7"/><path d="m328 312c-44.183594 0-80-35.816406-80-80s35.816406-80 80-80v16c-35.347656 0-64 28.652344-64 64s28.652344 64 64 64zm0 0" fill="#fff"/><path d="m124 16h24c6.628906 0 12 5.371094 12 12s-5.371094 12-12 12h-24c-6.628906 0-12-5.371094-12-12s5.371094-12 12-12zm0 0" fill="#b39a7c"/><g fill="#57565c"><path d="m312 334.648438c-52.898438-8.191407-90.910156-55.238282-87.804688-108.675782 3.105469-53.4375 46.3125-95.765625 99.804688-97.773437-1.335938-.046875-2.648438-.199219-4-.199219-54.328125-.050781-99.527344 41.746094-103.722656 95.914062-4.191406 54.164063 34.035156 102.421876 87.722656 110.734376v25.351562h8zm0 0"/><path d="m296 360h8v64h-8zm0 0"/></g></svg>